<svg xmlns="http://www.w3.org/2000/svg" xmlns:xlink="http://www.w3.org/1999/xlink" width="526" height="434" viewBox="0 0 526 434">
  <defs>
    <clipPath id="clip-path">
      <rect width="97.103" height="5.972" fill="none"/>
    </clipPath>
  </defs>
  <g id="Group_925" data-name="Group 925" transform="translate(-798 -145)">
    <circle id="Ellipse_4" data-name="Ellipse 4" cx="63" cy="63" r="63" transform="translate(1036 145)" fill="rgba(255,255,255,0.1)"/>
    <circle id="Ellipse_5" data-name="Ellipse 5" cx="38" cy="38" r="38" transform="translate(1248 251)" fill="rgba(255,255,255,0.1)" opacity="0.8"/>
    <circle id="Ellipse_9" data-name="Ellipse 9" cx="38" cy="38" r="38" transform="translate(895 503)" fill="rgba(255,255,255,0.1)"/>
    <g id="Group_2" data-name="Group 2" transform="translate(576 -542)">
      <ellipse id="Ellipse_8" data-name="Ellipse 8" cx="191" cy="110" rx="191" ry="110" transform="translate(222 858)" fill="#25fafe"/>
      <path id="Path_146" data-name="Path 146" d="M55.081,23.8,285.318,10.567c3.314,0,5.146,2.407,5.146,5.72,0,0-51.028,100.625-51.086,100.9-1.427,3.311-6.415,6.318-9.729,6.318L6.485,135.3a6,6,0,0,1-6-6L49.08,29.8C50.615,26.1,51.767,23.8,55.081,23.8Z" transform="matrix(0.839, 0.545, -0.545, 0.839, 356.267, 819.542)" fill="#0094e8"/>
      <ellipse id="Ellipse_7" data-name="Ellipse 7" cx="81.5" cy="46.5" rx="81.5" ry="46.5" transform="translate(285 970)" fill="#0093e8"/>
      <path id="Path_145" data-name="Path 145" d="M28.5,17.562c36.463.845,98.71,5.029,98.71,5.029,26.786,0,66.676,12.514,78.375,45.25,10.12,25.472-8.791,38.226-43.137,35.716,0,0-86.2-.694-97.384-.992-32.009-2.892-65.7-32.542-69.822-53.4S8.664,15.923,28.5,17.562Z" transform="translate(289.035 988.042) rotate(-30)" fill="#006ec5"/>
      <path id="Path_68" data-name="Path 68" d="M591.571,896.714s.143,4.286.857,5.286,5.714,2.286,10,1.143a27.44,27.44,0,0,0,8.429-4.429l.714-3L615,893.857s14-4.857,16.571-7.286,5.143-4.429,6.429-8,.143-8-.857-8.714-11.429,11-11.429,11-22.143,10.571-22.571,11.429-8.286,3.429-8.286,3.429Z" transform="translate(-134 98)" fill="#021823"/>
      <path id="Path_67" data-name="Path 67" d="M589.286,884.429s0,6.571,1.857,10.714,12.714,2,12.714,2,6.714-1.571,8.714-4,10.143-4.857,10.143-4.857,6.429-3,10.286-8,4.429-8,3.857-10.286-5.714-2.714-5.714-2.714l-6,1S618.857,869.571,617,870s-6.143,7.286-6.143,7.286l-17.143,7.143Z" transform="translate(-134 98)" fill="#083c54"/>
      <path id="Path_66" data-name="Path 66" d="M589.286,880.614v4.243A34.106,34.106,0,0,0,599.714,886c5.714-.286,10.429-5.386,10.429-5.386S614.429,876,615,875.143a39.23,39.23,0,0,0,1.857-5h-6.714L607,873.429l-5.571,3.286-7.857,1.714Z" transform="translate(-134 98)" fill="#021823"/>
      <path id="Path_62" data-name="Path 62" d="M523.8,839.453l4.6-18.253L531,814s5.4,7.8,12.2,3,15-15.8,19.6-14.8,11.2.4,14.8,3,22.2,14.4,22.2,14.4-1,11.2,4.2,27.6c5.8,15.8,6.8,19,6.8,20.8s-3.6,10-8.8,11-10.4-7.6-10.4-7.6l-15.2-41.8-12-7.2-36,21.8Z" transform="translate(-134 98)" fill="#0f5577"/>
      <path id="Path_70" data-name="Path 70" d="M713.167,774.5s8.5,86.364,11.167,114.833c0-.333-1.083.542-1.083.542l-2.625-.542s-14.625-102.958-15-103.208-.375-.875-1.375-.875c-.25.125-69.5,40.25-70.875,41.125a15.64,15.64,0,0,0-6.625,12.25c-.125,7.125-2.417,109.542-2.417,109.542H617s-3-107.717-3.2-109.542-1.4-9.025-5.4-11.225-8.4-5-8.4-5L453,737l-11.571-6.286s-2.371,1.2-6.029,36.486c-2.4,18.8-9.4,66-9.4,66l-1,1.4h-2.2c-.55,0,10.4-112.8,10.4-112.8l-1.367-2.467V718l24,14.167s159,92.5,161.5,92.833,4.833,2.333,11.5-1.167S713.167,774.5,713.167,774.5Z" transform="translate(-134 98)" fill="#0160d4"/>
      <path id="Path_10" data-name="Path 10" d="M511.375,901.375l24.2-11.518s.054-.42-2.321-1.357-4.437-1.5-4.437-1.5L502.75,897.75Z" transform="translate(-134 98)" fill="#bfbfbf"/>
      <path id="Path_13" data-name="Path 13" d="M419.75,926.438a6.17,6.17,0,0,0,5.313,7.313,7.969,7.969,0,0,0,6.688-1.625c1.063-.75,3.688-3.75,2.583-10.125-1.208-1.937-6.9-.5-8.75.5S420.375,923.063,419.75,926.438Z" transform="translate(-97 56)" fill="#5cadf5"/>
      <path id="Path_31" data-name="Path 31" d="M419,926.714c-.571,2,.429,6.143,5.143,7.429,3.571.714,5.571,0,7.607-2.018,1.964-1.839,2.679-7.7,0-9.625-1.208-1.937-4.312-1-6.167,0S419.571,924.714,419,926.714Z" transform="translate(-18 62)" fill="#5cadf5"/>
      <path id="Path_15" data-name="Path 15" d="M419.75,926.438a6.17,6.17,0,0,0,5.313,7.313,7.969,7.969,0,0,0,6.688-1.625c1.063-.75,5.083-4.458,2.417-11.292-1.208-1.937-6.729.667-8.583,1.667S420.375,923.063,419.75,926.438Z" transform="translate(-77 131)" fill="#5cadf5"/>
      <path id="Path_143" data-name="Path 143" d="M419.75,926.438a6.17,6.17,0,0,0,5.313,7.313,7.969,7.969,0,0,0,6.688-1.625c1.063-.75,5.083-4.458,2.417-11.292-1.208-1.937-6.729.667-8.583,1.667S420.375,923.063,419.75,926.438Z" transform="translate(-134 99)" fill="#5cadf5"/>
      <path id="Path_17" data-name="Path 17" d="M419,926.714c-.571,2,.429,6.143,5.143,7.429,3.571.714,5.571,0,7.607-2.018,1.964-1.839,2.679-7.7,0-9.625-1.208-1.937-4.312-1-6.167,0S419.571,924.714,419,926.714Z" transform="translate(-6 109)" fill="#5cadf5"/>
      <path id="Path_12" data-name="Path 12" d="M434.188,922.188c-3.625-1-7.75-1.062-8.75,7.375-2.312-1.062-5.062-2.25-6.812-3.25,1.125-3.5,3-8.687,8.875-7.437s1.938.5,1.938.5l3.625.313A2.548,2.548,0,0,1,434.188,922.188Z" transform="translate(-98 57)" fill="#8cc6fd"/>
      <path id="Path_32" data-name="Path 32" d="M433.857,923.429c-8.982.946-7.732,2.7-9.607,8.571-1.437-.5-5.187-3.437-5.75-3.667,1.125-3.5.5-7.762,6.929-9.619,4-.714,4.009.661,4.009.661S433,913.429,432,917.857,434.232,921.929,433.857,923.429Z" transform="translate(-18 62)" fill="#8cc6fd"/>
      <path id="Path_65" data-name="Path 65" d="M579.833,851.862l2.167,1.3s.167,6.5-2.167,10.5a18.439,18.439,0,0,1-9.5,7.667c-3,1-5.5-.333-7.5,3.333s-.333,4-3.5,7.833a8.218,8.218,0,0,1-7.667,4.167c-2.833,0-7.333-3.167-7.333-3.167l2-8.833s17.5-10,18.667-11S579.833,851.862,579.833,851.862Z" transform="translate(-134 98)" fill="#021825"/>
      <path id="Path_61" data-name="Path 61" d="M510.5,852.625s9.917-5.458,16.25-12.125,42.417-26.667,54.083-25.667c5.333.5,6.667,2.167,10,11.333S595,852.5,595,858.667s6.313,19.865,6.813,20.365c-1.281.5-8.146,2.169-10.979,1.369s-3.433-1.2-3.433-1.9-2.6-14.367-4.8-19.833S575,850,575,850l-27,3.8-16.8,9.8-17.6,9.2s-5.6-1.6-5.6-2.2S510.5,852.625,510.5,852.625Z" transform="translate(-134 98)" fill="#083c54"/>
      <path id="Path_64" data-name="Path 64" d="M543.375,876.667l1.792,2.5a7.826,7.826,0,0,0,5.5,2.833c3.5.167,5.167-1,8-5.333s3.5-3.833,7.833-5.167,12.833-8.833,13.667-14.833a71.19,71.19,0,0,0,.833-8.333l-9.167-.833-21.167,12-8.167,12Z" transform="translate(-134 98)" fill="#083c54"/>
      <path id="Path_14" data-name="Path 14" d="M434.313,922.25c-3.625-1-7.625-.375-8.625,8.063-1.437-.5-6.625-1.75-7.187-1.979,1.125-3.5,1.833-10.167,9-9.458s1.938.5,1.938.5h3.125S434.688,920.75,434.313,922.25Z" transform="translate(-77 130)" fill="#8cc6fd"/>
      <path id="Path_144" data-name="Path 144" d="M434.313,922.25c-3.625-1-7.625-.375-8.625,8.063-1.437-.5-6.625-1.75-7.187-1.979,1.125-3.5,1.833-10.167,9-9.458s1.938.5,1.938.5h3.125S434.688,920.75,434.313,922.25Z" transform="translate(-134 98)" fill="#8cc6fd"/>
      <path id="Path_63" data-name="Path 63" d="M544.7,866.333a16.874,16.874,0,0,0,13.8-1.833c7-4.333,9-8.833,10.667-14.333s-5.667,0-5.667,0l-13.333,8.667L544.7,864.5Z" transform="translate(-134 98)" fill="#011925"/>
      <path id="Path_16" data-name="Path 16" d="M433.857,923.429c-4.857-1-5.571,1.571-8.429,7.429-1.437-.5-6.366-2.295-6.929-2.524,1.125-3.5.5-7.762,6.929-9.619,4-.714,4.009.661,4.009.661S433,913.429,432,917.857,434.232,921.929,433.857,923.429Z" transform="translate(-6 109)" fill="#8cc6fd"/>
      <path id="Path_11" data-name="Path 11" d="M491.5,909.375s-53.812,7.438-55.625,8.375c-1.156.563-1,1.25-1.875,1.75-.281.344-3.25.906-5.125.5s-1.344-6.5-1.344-6.5l56.344-12h7Z" transform="translate(-134 98)" fill="#bfbfbf"/>
      <path id="Path_8" data-name="Path 8" d="M483.156,947.188a2.875,2.875,0,0,0,3.8.563c2.3-1.275,10.022-48.411,15.422-44.094-.158.026-.128-.129,0-.125.25.125.375,4.844,0,7.719-4.625,12.25-10.312,33.063-12.625,39.813-2.125,2.375-5.75,1.438-5.937-.25C483.5,949.563,483.156,947.188,483.156,947.188Z" transform="translate(-134 98)" fill="#bfbfbf"/>
      <path id="Path_9" data-name="Path 9" d="M502.344,911.219c15.083,2.667,53.656,19.865,55.823,19.865a4.118,4.118,0,0,0,3.167-1.25l.182-6.63-2.6,2.13s-53.51-21.333-55.01-21.677a11.248,11.248,0,0,0-2.281-.656A78.394,78.394,0,0,0,502.344,911.219Z" transform="translate(-134 98)" fill="#e2e2e2"/>
      <path id="Path_18" data-name="Path 18" d="M485.5,892.625a18.143,18.143,0,0,0,7.125-.875c3.375-1.25,10.625-5.083,10.625-5.083l-.375,9.458s-8.125,6.958-15.75,1.5C484.5,894.375,485.5,892.625,485.5,892.625Z" transform="translate(-134 98)" fill="#8797d6"/>
      <path id="Path_7" data-name="Path 7" d="M488.5,946c.827-1.626,7.75-30,10.667-39.083a5.041,5.041,0,0,1,1.583-2.417,3.609,3.609,0,0,1,3-.54c25.167,9.29,40.93,16.257,54.906,21.649a1.1,1.1,0,0,0,1-.078s1.449-1.637,1.875-2.266a.2.2,0,0,0-.172-.25l-56.859-25.2L529.167,887l-12.729-1.875-13.375,4.25L502.5,896s-3.375,3.75-10.437,3.25c-6.812-.375-6.656-6.219-6.656-6.219l-1.219-.094-1,4.875s-51.937,12.313-53.937,13.563c-.5.25-2.125,1.188-1.625,2.458.438.9,1.438.854,6.708,0,8.979-2.146,51.667-13.167,54.167-11.167s1.333,7,1.333,7.667-5.833,30.885-6.646,35.979c-.031.656-.5,1.938,1.688,1.875S487.375,948.438,488.5,946Z" transform="translate(-134 98)" fill="#b3daff"/>
      <path id="Path_72" data-name="Path 72" d="M457.75,733.5s-.875,2.125-1.375,3.75c0,.125-22.5-13.4-23.375-15.65a24.122,24.122,0,0,1-1.125-3.475h0Z" transform="translate(-134 98)" fill="#012756"/>
      <path id="Path_73" data-name="Path 73" d="M538.562,777.889,621.125,823.5l4.394-2.466,87.606-49.159,1.375,16.25,9.75,100.125-1,1S711.875,791,711.375,788.625s-2.25-4.375-5.375-3.875-23.125,13-23.125,13L639.75,822.625l-6,3.5s-5.5,3.25-6.5,9.375c-.375,1.375-.75,10-.75,10L624.375,948H622.5s-.25-105-.625-110c-1.125-6.75-5.875-8.75-6.875-9.5s-75.875-44.125-75.875-44.125l-2-7.75Z" transform="translate(-134 98)" fill="#012756"/>
      <path id="Path_69" data-name="Path 69" d="M19.713,5.693,231.419-21.449c4.418,0,8.013,5.675,6.921,9.228L198.98,79.434a19.349,19.349,0,0,1-11.316,7.729C132.118,96.3-20.215,113.7-20.215,113.7c-4.1,1.658-9.861-4.339-8.3-8.021L11.179,13.3C12.753,8.656,19.713,5.693,19.713,5.693Z" transform="matrix(0.799, 0.602, -0.602, 0.799, 383.773, 738.358)" fill="#ccdeef"/>
      <path id="Path_140" data-name="Path 140" d="M18.249,5.108l207.609-27.6c8.472-.658,7.865,5.379,6.793,8.746L194.793,74.166a18.937,18.937,0,0,1-11.108,7.325C129.161,90.15-22.053,108.925-22.053,108.925c-4.8.611-7.572-1.585-7.572-5.792l40.073-91.65C11.994,7.084,18.249,5.108,18.249,5.108Z" transform="matrix(0.799, 0.602, -0.602, 0.799, 383.926, 742.463)" fill="#0094e8"/>
      <path id="Path_104" data-name="Path 104" d="M34.8,21.869l93.965-10.458c1.657,0,2.287,1.519,2.287,3.147L117,46.387c-.585,1.334-1.221,2.642-3,2.948l-93,8.6a2.974,2.974,0,0,1-3-2.948L31.821,24S33.148,21.869,34.8,21.869Z" transform="matrix(0.809, 0.588, -0.588, 0.809, 397.867, 789.389)" fill="#025caa"/>
      <path id="Path_75" data-name="Path 75" d="M34.8,21.869l93.7-11.42c1.657,0,2.682,2.063,2.682,3.691L117,46.387c-.585,1.334-1.221,2.642-3,2.948l-93,8.6a2.974,2.974,0,0,1-3-2.948L31.821,24S33.148,21.869,34.8,21.869Z" transform="matrix(0.809, 0.588, -0.588, 0.809, 396.867, 785.389)" fill="#a5a7e0"/>
      <path id="Path_74" data-name="Path 74" d="M34.8,22.052l93.965-10.641a3,3,0,0,1,3,3L117,47c-.585,1.357-1.221,2.688-3,3L20.559,61.454a3,3,0,0,1-3-3L31.821,24.22S33.148,22.052,34.8,22.052Z" transform="matrix(0.809, 0.588, -0.588, 0.809, 396.867, 782.389)" fill="#fff"/>
      <path id="Path_51" data-name="Path 51" d="M484.25,728.5s2.25-5.25-13.25-5-19,23.25-18.5,29.75A81.711,81.711,0,0,0,460,783.5c6.25,13.75,11,16.25,11,16.25L477.25,755Z" transform="translate(-134 98)" fill="#a8a1ff"/>
      <path id="Path_47" data-name="Path 47" d="M502.875,854.862s11.792-1.2,23.458-13.862c9.333-7.667,4.667-23.25,5-29.667-.833-8.833-4.667-53-9.333-57.667a37.76,37.76,0,0,1-6.571-8.381S491,728.333,477.333,726s-34,24.333-12.667,59A531.691,531.691,0,0,1,502.875,854.862Z" transform="translate(-134 98)" fill="#6c5dfe"/>
      <path id="Path_48" data-name="Path 48" d="M502.875,836.75c2.375-7.5,4.875-11,4.375-15.75s-11.75-29.25-13.5-39-1.5-32.25,17-36.5c-1.25-.75-18.5-6.5-28-10.25S474.5,726,474.5,726a30.785,30.785,0,0,0-16.75,27c.5,13,1.25,19.5,9.75,34s26.25,35.25,26.25,35.25Z" transform="translate(-134 98)" fill="#a8a1ff"/>
      <path id="Path_20" data-name="Path 20" d="M428.4,765.2a44.969,44.969,0,0,0,2,14.6c6.9,16.8,8.6,36.2,7.1,50.45-5.1,25.75-6.75,37.5,15.5,48.25s30.2,13.5,36.2,8.5c7.6-5.6,13.6-1.6,17.6-5,1-6.8,3.4-19.2,0-43.8C500.4,820,495,807.4,488.2,800,474.8,792.4,444.3,779,428.4,765.2Z" transform="translate(-131 98)" fill="#1a95ff"/>
      <path id="Path_26" data-name="Path 26" d="M478.2,810.2c.3-1.6-50.7-39.6-47.8-30.4,6.9,16.8,37.7,36.75,36.2,51-5.1,25.75-15.45,21.65,6.8,32.4s6.8,25.2,12.8,20.2c7.6-5.6,16.6,2,20.6-1.4,1-6.8,3.4-19.2,0-43.8C500.4,820,495,807.4,488.2,800,473.6,803.4,494.1,824,478.2,810.2Z" transform="translate(-131 98)" fill="#0068c4"/>
      <path id="Path_19" data-name="Path 19" d="M430.5,767a46.879,46.879,0,0,0,2,15c6.9,16.8,6.5,34,5,48.25-5.1,25.75-6.75,37.5,15.5,48.25s26.6,14.3,32.8,14.3,14.8-3,16.4-5.8c5-1.6,8-24.2,4.6-48.8-6.4-18.2-11.8-31-18.6-37.2C474.8,793.4,446.4,780.8,430.5,767Z" transform="translate(-134 98)" fill="#87c5fe"/>
      <path id="Path_21" data-name="Path 21" d="M448,866.2c-7.2-6.4-8-5.6-5.8-23.4s3.6-21.2,3-28.4-2.2-12.6-.8-16.2,6.8-3.2,9.8-2.2,39.8,11,38.4,43.2c-.2,33.4,1.6,44.4-4.6,44.4C471.8,882.2,448,866.2,448,866.2Z" transform="translate(-134 98)" fill="#5ab1ff"/>
      <path id="Path_22" data-name="Path 22" d="M461.344,798.484c-4.094-1.5-9.25-3.578-12.156-3.109-1.375.875-1.375,3.125-1.187,5.225.4,5,2.8,19.6,0,30-2.344,8.7-4.551,20.238-2.634,25.551a6.283,6.283,0,0,0,1.572,2.286C453.083,864.333,479.4,882.6,490.6,881c2.733-2.167,1.9-11,1.233-15.333.95-14.7.6-37.267,0-37.667s-18.167-22-18.167-22Z" transform="translate(-134 98)" fill="#0067c4"/>
      <path id="Path_23" data-name="Path 23" d="M457.4,797.4c-9.1-2.267-4.8,0-4,7.6s1.2,14.6,0,22-4.8,20.6-2.4,24c2,6.8,31.857,21.829,41.857,20.429,0-9.286-.333-11.762,0-20.429,0-7.833,2.143-14.333-.857-23.167s-5.429-11.119-7.6-13.233C475.286,804.571,466.5,799.667,457.4,797.4Z" transform="translate(-134 98)" fill="#1b94ff"/>
      <path id="Path_28" data-name="Path 28" d="M508.335,868c.865.6,4.465,3.6,13.465-1.6s15.6-9.8,15.6-9.8l-1.2,8.8s-22,12.6-24.2,12.8-6.375-2.075-6.375-2.075Z" transform="translate(-134 102)" fill="#0067c4"/>
      <path id="Path_27" data-name="Path 27" d="M506.8,868c.865.6,6,3.6,15-1.6s37.7-23.525,37.7-23.525,4.25,1.375,5.25,3.125-13.25,10.625-13.25,10.625S515.6,878,513.4,878.2c-2.775.862-6.534,2.55-7.8,0S506.8,868,506.8,868Z" transform="translate(-134 98)" fill="#1d93ff"/>
      <path id="Path_29" data-name="Path 29" d="M505.238,883.6s1.637.975,4.512,0,39.5-21.35,43-23.725,10.375-7.875,10.625-8.5-.25,3.75-1.375,5-12,9-15,10.5c-2,.5-33.75,18.75-36.75,19.625s-7.625,0-7.625,0l1.25-2.9Z" transform="translate(-134 97)" fill="#1d96fe"/>
      <path id="Path_24" data-name="Path 24" d="M479.833,891.667c6-.2,10.367.133,16.167-3.667s8.2-9,8.8-21.8.2-25.8-4.6-37.8-13.6-26.8-13.6-26.8a1.009,1.009,0,0,1,1.181-.85l.514.267,1.611,1.515c2.857,2.571,11.837,18.812,14.894,28.326C509.571,842,508.2,860,508,866.2s-2.2,17.2-3.2,18.8-4.3,4.5-8.8,6C491.25,892.417,485.433,894.467,479.833,891.667Z" transform="translate(-134 98)" fill="#5cb2ff"/>
      <path id="Path_25" data-name="Path 25" d="M432.2,770S451,787.8,487,802.4a5.668,5.668,0,0,1,1.422-1.338S436.2,775,432.2,768C430.4,768,432.2,770,432.2,770Z" transform="translate(-134 98)" fill="#a2cff8"/>
      <path id="Path_36" data-name="Path 36" d="M560.5,843.5l12.25-9s-2.976,7.167,3.05,15.167c-3.18,1.5-9.206,2.5-10.713,2.167S552.2,863,547.01,863.667s0-4.5,0-4.5,6.863-3.5,9.373-5.667,6.361-5,7.867-6.667S560.5,843.5,560.5,843.5Z" transform="translate(-134 98)" fill="#006ec5"/>
      <path id="Path_30" data-name="Path 30" d="M514.25,882.212l13-6.212,6.875,1.625,4.625-22.5s3.625-.75,4.25-.75,6-3.75,6-3.75l-4.25,28.25h2.5V885L540,887.625l-5,2.25-3.625-1.75L521,886l-6.125-1-2.75-1.875Z" transform="translate(-134 98)" fill="#5ab1ff"/>
      <path id="Path_33" data-name="Path 33" d="M512,883.063l20.25,2.313,6.625-30.875,4.5-.875-8.687,36.688L528.5,887.5l-17.187-3.312Z" transform="translate(-134 98)" fill="#94c5f1"/>
      <path id="Path_35" data-name="Path 35" d="M544.375,851.25c5-2.875,17.375-11.375,17.375-11.375s8.344-5.625,8.375-5.625c3.094-2.344,3.375-1.406,3.313-6.687-2.375-2.25-9.187-1.937-10.812-1.312s-5.125,2.375-5.125,2.375S537.125,839,531.125,844.5c-.625,4.125,1,4.25,1.625,4.75A12.523,12.523,0,0,0,544.375,851.25Z" transform="translate(-134 101)" fill="#5eb4ff"/>
      <path id="Path_40" data-name="Path 40" d="M514,678l9.579-1.583-.75,2L530,675.25s1,5.75-1.25,7.5,2.5-.417,2.5-.417,0,5.917-5,8.167S516,689,516,689Z" transform="translate(-134 98)" fill="#311a08"/>
      <path id="Path_41" data-name="Path 41" d="M525.969,701.844s6.75,3.625,7.2,3.99c.13.151.333-.167,0,1.667s-3.833,5-5.333,5.167-6.5,0-6.5,0l.667-2s3.7.333,5.156.333a.826.826,0,0,0,.677-.187c1.135-1.031,3.51-2.719,3.979-3.312a2.635,2.635,0,0,0,.188-1c-.062-.156-6.531-3.031-6.531-3.031Z" transform="translate(-134 98)" fill="#043347"/>
      <path id="Path_37" data-name="Path 37" d="M480.75,698.5s1,16,10.25,17.5,12,.5,13.75-2.5,1.938-4.281,3.938-4.281c3.031-.031,7.906.938,9.688-1.75A12.3,12.3,0,0,0,519.5,698.5c.5,0,9-1,11.75-7.25-4-1-5.25-.25-7-2.75,2-1,4-3,7-6,.25-.25-5.75.25-5.75,0s1.5-5,4.5-7.25c-.25-.25-8.75,4.25-10.5,3.5s2.583-2.5,3.833-2.25-1.583-1.25-14.583,0-15.75,2.75-25.25,12C481,691,480.75,698.5,480.75,698.5Z" transform="translate(-134 98)" fill="#633815"/>
      <path id="Path_43" data-name="Path 43" d="M519.857,698.857s6.429-1.714,7.286-2.714-1.429,7.286-1.714,8.286-1,2.714-1,2.714a57.084,57.084,0,0,1-1.714,6.571c-.571,1.143-2.143,4-2.143,5.143a7.468,7.468,0,0,1-1.134,3.83c-.714,1-.152,1.884-1.723,2.6s-5.937-.009-7.339-.286a4.56,4.56,0,0,0-2.661,4c.143,2.143-.583.179-4.3-1.25A73.163,73.163,0,0,0,486,722.688l.714-8.973s2.714,4.429,15,3.286c2.429-.286,3.857-5.527,6-6.812,2.286-1.75,4.879,0,7.879-1C520.879,708.045,519.857,698.857,519.857,698.857Z" transform="translate(-134 98)" fill="#ffcda8"/>
      <path id="Path_44" data-name="Path 44" d="M486.594,713.75a19.628,19.628,0,0,0,10.073,3.333,34.622,34.622,0,0,0,5.167,0c1.833-.167,2.75-3,4.167-5,1.167-1.5,1.667-2,3.167-2.5-.792.667-.833,3.083,0,5.667a13.823,13.823,0,0,1,.917,6,5.642,5.642,0,0,0,0,2.917c.024.065.37.505.276.818-1.062.469-2.891,2.281-2.625,4.2a1.2,1.2,0,0,1-.125.719c-.25.172-1.859-1.187-3.641-2.062.109-1.266-5.417-9.719-17.5-10.219C486.469,716.375,486.594,713.75,486.594,713.75Z" transform="translate(-134 98)" fill="#d19b77"/>
      <path id="Path_34" data-name="Path 34" d="M544.375,851.25c5-2.875,19.25-12.875,19.25-12.875L572,833s3-2.125.625-4.375-8.375-3-10-2.375-5.125,2.375-5.125,2.375-20.375,12.25-26.375,17.75c-.625,1.875,1,2.375,1.625,2.875A12.523,12.523,0,0,0,544.375,851.25Z" transform="translate(-134 98)" fill="#1b94ff"/>
      <path id="Path_45" data-name="Path 45" d="M510.125,719.594s2.542,2.323,3.625,2.573,4.547,2.74,4.547,2.74-.219,1-4.547.594c-1.328-.141-2.375-.328-3.391-.516a4.325,4.325,0,0,0-.422-1.187,6.5,6.5,0,0,1,.125-2.906A3.291,3.291,0,0,0,510.125,719.594Z" transform="translate(-134 98)" fill="#e4b692"/>
      <path id="Path_46" data-name="Path 46" d="M519.594,704.141c.172-.062,6.531-2.2,6.531-2.2a60.151,60.151,0,0,0,1.313-5.969c-1.633-.766-7.427,3.073-7.844,2.906A15.892,15.892,0,0,1,519.594,704.141Z" transform="translate(-134 98)" fill="#d29c76"/>
      <path id="Path_38" data-name="Path 38" d="M481.75,692.333s14.083,13.083,49.333-.917c.042.865-.677,8.615-29.833,10.333-6,.5-19.667-3.75-20.417-5C481.25,692.417,481.75,692.333,481.75,692.333Z" transform="translate(-134 98)" fill="#311a08"/>
      <path id="Path_39" data-name="Path 39" d="M480.847,700.5a21.263,21.263,0,0,0,15.153,5c7.75-1.25,19.5-2,18.583,6.667-.09-.075-.677.314-1,0a3.261,3.261,0,0,0-3.615-2.792c-1.312.375-2.458.4-5.625,5.313-1.5,3.438-4.031,2.844-10.719,2.219C485.313,715.969,481.75,708.25,480.847,700.5Z" transform="translate(-134 98)" fill="#311a08"/>
      <path id="Path_42" data-name="Path 42" d="M512,709.714l20.714-3.286-1.143,1.714s-9.429,1.143-10.143,1.571a30.841,30.841,0,0,1-7.857,1.429A1.683,1.683,0,0,1,512,709.714Z" transform="translate(-134 98)" fill="#95cfff"/>
      <path id="Path_49" data-name="Path 49" d="M498.422,768a26.993,26.993,0,0,1,2.328-12c2-5.25,11.75-14.5,25.25-2.5,11.25,10,12.25,30.75,21.5,41.5,2.25-1.5,15.281-13.719,17.031-14.719s7.719.734,9.906,2.219S579,789,579,790s-31.5,30.75-33.5,31.25-7,3.25-12.75-1.5c-4-6-22.75-34.5-24.5-35.75s-9.156-3.25-9.828-7.25A33.667,33.667,0,0,1,498.422,768Z" transform="translate(-134 98)" fill="#8579ff"/>
      <path id="Path_52" data-name="Path 52" d="M479.833,726,511.5,742s-1.083-8.167-3.583-11.917c-2.5-2.25-13.333-6.333-21.833-7.833C483.333,723,479.833,726,479.833,726Z" transform="translate(-134 98)" fill="#cce4fc"/>
      <path id="Path_53" data-name="Path 53" d="M567.719,780.063c.75-.922.141-1.125.328-1.687s11.2-3.625,15.2,5.875c-.5-.25-4.437,4.906-4.437,4.906S576.5,783.5,573.75,782A16.11,16.11,0,0,0,567.719,780.063Z" transform="translate(-134 98)" fill="#cfe7ff"/>
      <path id="Path_76" data-name="Path 76" d="M1.658,1.057C1.673,1.064,5.5.789,5.5.789c.182.039.345.052.256.452l-1.232,2.6c-.08.566-.309.484-.309.484L.185,4.645c-.358-.058-.174-.6-.174-.6S1.167,1.838,1.2,1.661C1.292,1.25,1.354,1.062,1.658,1.057Z" transform="matrix(0.819, 0.574, -0.574, 0.819, 450.026, 854.527)" fill="#8787c7"/>
      <path id="Path_57" data-name="Path 57" d="M582.125,761.031a2.33,2.33,0,0,1,2.031-.594c.281.031.484.5.438,1.125s-.562.969-1.094,1.563a5.44,5.44,0,0,1-3,1.688c-1.312.188-2.781.219-1.281-.969S581,761.859,582.125,761.031Z" transform="translate(-134 98)" fill="#d19f7a"/>
      <path id="Path_58" data-name="Path 58" d="M582.125,761.031a3.562,3.562,0,0,1,2.094-.937c.281.031.422.844.375,1.469s-.562.969-1.094,1.563-.875,3.063-2.187,3.25-3.594-1.344-2.094-2.531S581,761.859,582.125,761.031Z" transform="translate(-130 99)" fill="#d19f7a"/>
      <path id="Path_56" data-name="Path 56" d="M579.969,779.75c-1.25,1.583-3.891,4.51-3.891,4.5a27.27,27.27,0,0,1,2.719,4.922c.667-.417,3.495-4.568,4.578-4.984C582.875,783.188,581.385,780.417,579.969,779.75Z" transform="translate(-134 98)" fill="#98cefd"/>
      <path id="Path_60" data-name="Path 60" d="M475.167,726.667c.571,1.786-.167,4.9,10.119,8.19s23.381,8.976,26.714,10a25.54,25.54,0,0,1,5.438,3.362,36.021,36.021,0,0,0-3.295-4.647c-8.679-5.036-22.643-12.071-32.81-16.9C476.667,725.119,476.833,726.667,475.167,726.667Z" transform="translate(-134 98)" fill="#8878ff"/>
      <path id="Path_142" data-name="Path 142" d="M1.658,1.057C1.673,1.064,5.5.789,5.5.789c.182.039.345.052.256.452l-1.232,2.6c-.08.566-.309.484-.309.484L.185,4.645c-.358-.058-.174-.6-.174-.6S1.167,1.838,1.2,1.661C1.292,1.25,1.354,1.062,1.658,1.057Z" transform="matrix(0.819, 0.574, -0.574, 0.819, 457.151, 858.527)" fill="#8787c7"/>
      <path id="Path_71" data-name="Path 71" d="M441.12,729.921s-6.37-.671-6.87,5.329-9.75,81.5-9.75,81.5l-1.75,16.75v1.125h1.75L426,833.5l6-41.125L437.375,751s1.5-10.625,2.25-14.375S441.12,729.921,441.12,729.921Z" transform="translate(-134 98)" fill="#012756"/>
      <path id="Path_50" data-name="Path 50" d="M576.094,784.25s-23.844,23.5-29.594,24S537,806.75,536,803c-3.5-6.5-9-32.25-23.75-36.5-9.5-2.5-13.75,0-13.75,0s1.083-17.583,11.833-18.833c11-1.75,17.667,7.833,17.667,7.833s4.25,4.5,8,13.75c4.25,8.75,5,20.25,11.75,25.25,2.25-2,16.5-14,17-14.5C573.469,779.594,576.094,784.25,576.094,784.25Z" transform="translate(-134 98)" fill="#a8a1ff"/>
      <path id="Path_59" data-name="Path 59" d="M582.125,761.031a3.217,3.217,0,0,1,2.281-.75c.281.031.391,1.031.344,1.656s-1.437.5-1.937,1.625-1.469,3.469-2.781,3.656-2.312-2.187-.812-3.375S581,761.859,582.125,761.031Z" transform="translate(-124 101)" fill="#d19f7a"/>
      <g id="Repeat_Grid_1" data-name="Repeat Grid 1" transform="translate(410.744 819.698) rotate(30)" clip-path="url(#clip-path)">
        <g transform="translate(-408.082 -821.324)">
          <path id="Path_76-2" data-name="Path 76" d="M1.113.8C1.13.808,5.647.462,5.647.462c.207.026.327-.044.292.3L5.408,2.653c-.091.376-.352.321-.352.321l-4.627.29c-.408-.039-.2-.558-.2-.558s.307-1.022.35-1.139C.752,1.074.767.806,1.113.8Z" transform="matrix(0.996, 0.087, -0.087, 0.996, 408.309, 822.149)" fill="#8787c7"/>
        </g>
        <g transform="translate(-401.082 -821.324)">
          <path id="Path_76-3" data-name="Path 76" d="M1.113.8C1.13.808,5.647.462,5.647.462c.207.026.327-.044.292.3L5.408,2.653c-.091.376-.352.321-.352.321l-4.627.29c-.408-.039-.2-.558-.2-.558s.307-1.022.35-1.139C.752,1.074.767.806,1.113.8Z" transform="matrix(0.996, 0.087, -0.087, 0.996, 408.309, 822.149)" fill="#8787c7"/>
        </g>
        <g transform="translate(-394.082 -821.324)">
          <path id="Path_76-4" data-name="Path 76" d="M1.113.8C1.13.808,5.647.462,5.647.462c.207.026.327-.044.292.3L5.408,2.653c-.091.376-.352.321-.352.321l-4.627.29c-.408-.039-.2-.558-.2-.558s.307-1.022.35-1.139C.752,1.074.767.806,1.113.8Z" transform="matrix(0.996, 0.087, -0.087, 0.996, 408.309, 822.149)" fill="#8787c7"/>
        </g>
        <g transform="translate(-387.082 -821.324)">
          <path id="Path_76-5" data-name="Path 76" d="M1.113.8C1.13.808,5.647.462,5.647.462c.207.026.327-.044.292.3L5.408,2.653c-.091.376-.352.321-.352.321l-4.627.29c-.408-.039-.2-.558-.2-.558s.307-1.022.35-1.139C.752,1.074.767.806,1.113.8Z" transform="matrix(0.996, 0.087, -0.087, 0.996, 408.309, 822.149)" fill="#8787c7"/>
        </g>
        <g transform="translate(-380.082 -821.324)">
          <path id="Path_76-6" data-name="Path 76" d="M1.113.8C1.13.808,5.647.462,5.647.462c.207.026.327-.044.292.3L5.408,2.653c-.091.376-.352.321-.352.321l-4.627.29c-.408-.039-.2-.558-.2-.558s.307-1.022.35-1.139C.752,1.074.767.806,1.113.8Z" transform="matrix(0.996, 0.087, -0.087, 0.996, 408.309, 822.149)" fill="#8787c7"/>
        </g>
        <g transform="translate(-373.082 -821.324)">
          <path id="Path_76-7" data-name="Path 76" d="M1.113.8C1.13.808,5.647.462,5.647.462c.207.026.327-.044.292.3L5.408,2.653c-.091.376-.352.321-.352.321l-4.627.29c-.408-.039-.2-.558-.2-.558s.307-1.022.35-1.139C.752,1.074.767.806,1.113.8Z" transform="matrix(0.996, 0.087, -0.087, 0.996, 408.309, 822.149)" fill="#8787c7"/>
        </g>
        <g transform="translate(-366.082 -821.324)">
          <path id="Path_76-8" data-name="Path 76" d="M1.113.8C1.13.808,5.647.462,5.647.462c.207.026.327-.044.292.3L5.408,2.653c-.091.376-.352.321-.352.321l-4.627.29c-.408-.039-.2-.558-.2-.558s.307-1.022.35-1.139C.752,1.074.767.806,1.113.8Z" transform="matrix(0.996, 0.087, -0.087, 0.996, 408.309, 822.149)" fill="#8787c7"/>
        </g>
        <g transform="translate(-359.082 -821.324)">
          <path id="Path_76-9" data-name="Path 76" d="M1.113.8C1.13.808,5.647.462,5.647.462c.207.026.327-.044.292.3L5.408,2.653c-.091.376-.352.321-.352.321l-4.627.29c-.408-.039-.2-.558-.2-.558s.307-1.022.35-1.139C.752,1.074.767.806,1.113.8Z" transform="matrix(0.996, 0.087, -0.087, 0.996, 408.309, 822.149)" fill="#8787c7"/>
        </g>
        <g transform="translate(-352.082 -821.324)">
          <path id="Path_76-10" data-name="Path 76" d="M1.113.8C1.13.808,5.647.462,5.647.462c.207.026.327-.044.292.3L5.408,2.653c-.091.376-.352.321-.352.321l-4.627.29c-.408-.039-.2-.558-.2-.558s.307-1.022.35-1.139C.752,1.074.767.806,1.113.8Z" transform="matrix(0.996, 0.087, -0.087, 0.996, 408.309, 822.149)" fill="#8787c7"/>
        </g>
        <g transform="translate(-345.082 -821.324)">
          <path id="Path_76-11" data-name="Path 76" d="M1.113.8C1.13.808,5.647.462,5.647.462c.207.026.327-.044.292.3L5.408,2.653c-.091.376-.352.321-.352.321l-4.627.29c-.408-.039-.2-.558-.2-.558s.307-1.022.35-1.139C.752,1.074.767.806,1.113.8Z" transform="matrix(0.996, 0.087, -0.087, 0.996, 408.309, 822.149)" fill="#8787c7"/>
        </g>
        <g transform="translate(-338.082 -821.324)">
          <path id="Path_76-12" data-name="Path 76" d="M1.113.8C1.13.808,5.647.462,5.647.462c.207.026.327-.044.292.3L5.408,2.653c-.091.376-.352.321-.352.321l-4.627.29c-.408-.039-.2-.558-.2-.558s.307-1.022.35-1.139C.752,1.074.767.806,1.113.8Z" transform="matrix(0.996, 0.087, -0.087, 0.996, 408.309, 822.149)" fill="#8787c7"/>
        </g>
        <g transform="translate(-331.082 -821.324)">
          <path id="Path_76-13" data-name="Path 76" d="M1.113.8C1.13.808,5.647.462,5.647.462c.207.026.327-.044.292.3L5.408,2.653c-.091.376-.352.321-.352.321l-4.627.29c-.408-.039-.2-.558-.2-.558s.307-1.022.35-1.139C.752,1.074.767.806,1.113.8Z" transform="matrix(0.996, 0.087, -0.087, 0.996, 408.309, 822.149)" fill="#8787c7"/>
        </g>
        <g transform="translate(-324.082 -821.324)">
          <path id="Path_76-14" data-name="Path 76" d="M1.113.8C1.13.808,5.647.462,5.647.462c.207.026.327-.044.292.3L5.408,2.653c-.091.376-.352.321-.352.321l-4.627.29c-.408-.039-.2-.558-.2-.558s.307-1.022.35-1.139C.752,1.074.767.806,1.113.8Z" transform="matrix(0.996, 0.087, -0.087, 0.996, 408.309, 822.149)" fill="#8787c7"/>
        </g>
        <g transform="translate(-317.082 -821.324)">
          <path id="Path_76-15" data-name="Path 76" d="M1.113.8C1.13.808,5.647.462,5.647.462c.207.026.327-.044.292.3L5.408,2.653c-.091.376-.352.321-.352.321l-4.627.29c-.408-.039-.2-.558-.2-.558s.307-1.022.35-1.139C.752,1.074.767.806,1.113.8Z" transform="matrix(0.996, 0.087, -0.087, 0.996, 408.309, 822.149)" fill="#8787c7"/>
        </g>
      </g>
      <path id="Path_306" data-name="Path 306" d="M1.658,1.057C1.673,1.064,5.5.789,5.5.789c.182.039.345.052.256.452l-1.232,2.6c-.08.566-.309.484-.309.484L.185,4.645c-.358-.058-.174-.6-.174-.6S1.167,1.838,1.2,1.661C1.292,1.25,1.354,1.062,1.658,1.057Z" transform="matrix(0.819, 0.574, -0.574, 0.819, 462.151, 861.527)" fill="#8787c7"/>
      <g id="Repeat_Grid_2" data-name="Repeat Grid 2" transform="translate(406.744 821.698) rotate(30)" clip-path="url(#clip-path)">
        <g transform="translate(-408.082 -821.324)">
          <path id="Path_76-16" data-name="Path 76" d="M1.658,1.057C1.673,1.064,5.5.789,5.5.789c.182.039.345.052.256.452l-1.232,2.6c-.08.566-.309.484-.309.484L.185,4.645c-.358-.058-.174-.6-.174-.6S1.167,1.838,1.2,1.661C1.292,1.25,1.354,1.062,1.658,1.057Z" transform="matrix(0.996, 0.087, -0.087, 0.996, 408.309, 822.149)" fill="#8787c7"/>
        </g>
        <g transform="translate(-401.082 -821.324)">
          <path id="Path_76-17" data-name="Path 76" d="M1.658,1.057C1.673,1.064,5.5.789,5.5.789c.182.039.345.052.256.452l-1.232,2.6c-.08.566-.309.484-.309.484L.185,4.645c-.358-.058-.174-.6-.174-.6S1.167,1.838,1.2,1.661C1.292,1.25,1.354,1.062,1.658,1.057Z" transform="matrix(0.996, 0.087, -0.087, 0.996, 408.309, 822.149)" fill="#8787c7"/>
        </g>
        <g transform="translate(-394.082 -821.324)">
          <path id="Path_76-18" data-name="Path 76" d="M1.658,1.057C1.673,1.064,5.5.789,5.5.789c.182.039.345.052.256.452l-1.232,2.6c-.08.566-.309.484-.309.484L.185,4.645c-.358-.058-.174-.6-.174-.6S1.167,1.838,1.2,1.661C1.292,1.25,1.354,1.062,1.658,1.057Z" transform="matrix(0.996, 0.087, -0.087, 0.996, 408.309, 822.149)" fill="#8787c7"/>
        </g>
        <g transform="translate(-387.082 -821.324)">
          <path id="Path_76-19" data-name="Path 76" d="M1.658,1.057C1.673,1.064,5.5.789,5.5.789c.182.039.345.052.256.452l-1.232,2.6c-.08.566-.309.484-.309.484L.185,4.645c-.358-.058-.174-.6-.174-.6S1.167,1.838,1.2,1.661C1.292,1.25,1.354,1.062,1.658,1.057Z" transform="matrix(0.996, 0.087, -0.087, 0.996, 408.309, 822.149)" fill="#8787c7"/>
        </g>
        <g transform="translate(-380.082 -821.324)">
          <path id="Path_76-20" data-name="Path 76" d="M1.658,1.057C1.673,1.064,5.5.789,5.5.789c.182.039.345.052.256.452l-1.232,2.6c-.08.566-.309.484-.309.484L.185,4.645c-.358-.058-.174-.6-.174-.6S1.167,1.838,1.2,1.661C1.292,1.25,1.354,1.062,1.658,1.057Z" transform="matrix(0.996, 0.087, -0.087, 0.996, 408.309, 822.149)" fill="#8787c7"/>
        </g>
        <g transform="translate(-373.082 -821.324)">
          <path id="Path_76-21" data-name="Path 76" d="M1.658,1.057C1.673,1.064,5.5.789,5.5.789c.182.039.345.052.256.452l-1.232,2.6c-.08.566-.309.484-.309.484L.185,4.645c-.358-.058-.174-.6-.174-.6S1.167,1.838,1.2,1.661C1.292,1.25,1.354,1.062,1.658,1.057Z" transform="matrix(0.996, 0.087, -0.087, 0.996, 408.309, 822.149)" fill="#8787c7"/>
        </g>
        <g transform="translate(-366.082 -821.324)">
          <path id="Path_76-22" data-name="Path 76" d="M1.658,1.057C1.673,1.064,5.5.789,5.5.789c.182.039.345.052.256.452l-1.232,2.6c-.08.566-.309.484-.309.484L.185,4.645c-.358-.058-.174-.6-.174-.6S1.167,1.838,1.2,1.661C1.292,1.25,1.354,1.062,1.658,1.057Z" transform="matrix(0.996, 0.087, -0.087, 0.996, 408.309, 822.149)" fill="#8787c7"/>
        </g>
        <g transform="translate(-359.082 -821.324)">
          <path id="Path_76-23" data-name="Path 76" d="M1.658,1.057C1.673,1.064,5.5.789,5.5.789c.182.039.345.052.256.452l-1.232,2.6c-.08.566-.309.484-.309.484L.185,4.645c-.358-.058-.174-.6-.174-.6S1.167,1.838,1.2,1.661C1.292,1.25,1.354,1.062,1.658,1.057Z" transform="matrix(0.996, 0.087, -0.087, 0.996, 408.309, 822.149)" fill="#8787c7"/>
        </g>
        <g transform="translate(-352.082 -821.324)">
          <path id="Path_76-24" data-name="Path 76" d="M1.658,1.057C1.673,1.064,5.5.789,5.5.789c.182.039.345.052.256.452l-1.232,2.6c-.08.566-.309.484-.309.484L.185,4.645c-.358-.058-.174-.6-.174-.6S1.167,1.838,1.2,1.661C1.292,1.25,1.354,1.062,1.658,1.057Z" transform="matrix(0.996, 0.087, -0.087, 0.996, 408.309, 822.149)" fill="#8787c7"/>
        </g>
        <g transform="translate(-345.082 -821.324)">
          <path id="Path_76-25" data-name="Path 76" d="M1.658,1.057C1.673,1.064,5.5.789,5.5.789c.182.039.345.052.256.452l-1.232,2.6c-.08.566-.309.484-.309.484L.185,4.645c-.358-.058-.174-.6-.174-.6S1.167,1.838,1.2,1.661C1.292,1.25,1.354,1.062,1.658,1.057Z" transform="matrix(0.996, 0.087, -0.087, 0.996, 408.309, 822.149)" fill="#8787c7"/>
        </g>
        <g transform="translate(-338.082 -821.324)">
          <path id="Path_76-26" data-name="Path 76" d="M1.658,1.057C1.673,1.064,5.5.789,5.5.789c.182.039.345.052.256.452l-1.232,2.6c-.08.566-.309.484-.309.484L.185,4.645c-.358-.058-.174-.6-.174-.6S1.167,1.838,1.2,1.661C1.292,1.25,1.354,1.062,1.658,1.057Z" transform="matrix(0.996, 0.087, -0.087, 0.996, 408.309, 822.149)" fill="#8787c7"/>
        </g>
        <g transform="translate(-331.082 -821.324)">
          <path id="Path_76-27" data-name="Path 76" d="M1.658,1.057C1.673,1.064,5.5.789,5.5.789c.182.039.345.052.256.452l-1.232,2.6c-.08.566-.309.484-.309.484L.185,4.645c-.358-.058-.174-.6-.174-.6S1.167,1.838,1.2,1.661C1.292,1.25,1.354,1.062,1.658,1.057Z" transform="matrix(0.996, 0.087, -0.087, 0.996, 408.309, 822.149)" fill="#8787c7"/>
        </g>
        <g transform="translate(-324.082 -821.324)">
          <path id="Path_76-28" data-name="Path 76" d="M1.658,1.057C1.673,1.064,5.5.789,5.5.789c.182.039.345.052.256.452l-1.232,2.6c-.08.566-.309.484-.309.484L.185,4.645c-.358-.058-.174-.6-.174-.6S1.167,1.838,1.2,1.661C1.292,1.25,1.354,1.062,1.658,1.057Z" transform="matrix(0.996, 0.087, -0.087, 0.996, 408.309, 822.149)" fill="#8787c7"/>
        </g>
        <g transform="translate(-317.082 -821.324)">
          <path id="Path_76-29" data-name="Path 76" d="M1.658,1.057C1.673,1.064,5.5.789,5.5.789c.182.039.345.052.256.452l-1.232,2.6c-.08.566-.309.484-.309.484L.185,4.645c-.358-.058-.174-.6-.174-.6S1.167,1.838,1.2,1.661C1.292,1.25,1.354,1.062,1.658,1.057Z" transform="matrix(0.996, 0.087, -0.087, 0.996, 408.309, 822.149)" fill="#8787c7"/>
        </g>
      </g>
      <path id="Path_76-30" data-name="Path 76" d="M2.58,1.057C2.6,1.064,8.508.789,8.508.789c.28.039.533.052.4.452L7.49,3.922c-.123.566-.478.484-.478.484L.879,4.58c-.552-.058-.269-.6-.269-.6S1.821,1.838,1.879,1.661C2.015,1.25,2.11,1.062,2.58,1.057Z" transform="matrix(0.819, 0.574, -0.574, 0.819, 400.939, 825.713)" fill="#8787c7"/>
      <path id="Path_77" data-name="Path 77" d="M2.883,1.057c.025.007,6.807-.268,6.807-.268.322.039.612.052.455.452L8.522,3.922c-.141.566-.548.484-.548.484L.929,4.58c-.634-.058-.309-.6-.309-.6s1.39-2.139,1.457-2.316C2.234,1.25,2.344,1.062,2.883,1.057Z" transform="matrix(0.819, 0.574, -0.574, 0.819, 395.202, 829.197)" fill="#8787c7"/>
      <path id="Path_96" data-name="Path 96" d="M3.042,1.051,12.995.609c.44.039.837.052.621.452L12.1,4.07a.7.7,0,0,1-.75.484L1.241,5.072c-.867-.058-.422-.6-.422-.6S2.335,1.658,2.427,1.481A.782.782,0,0,1,3.042,1.051Z" transform="matrix(0.819, 0.574, -0.574, 0.819, 389.299, 832.164)" fill="#8787c7"/>
      <path id="Path_76-31" data-name="Path 76" d="M1.658,1.057C1.673,1.064,5.5.789,5.5.789c.182.039.345.052.256.452l-1.232,2.6c-.08.566-.309.484-.309.484L.185,4.645c-.358-.058-.174-.6-.174-.6S1.167,1.838,1.2,1.661C1.292,1.25,1.354,1.062,1.658,1.057Z" transform="matrix(0.819, 0.574, -0.574, 0.819, 409.591, 831.027)" fill="#8787c7"/>
      <path id="Path_78" data-name="Path 78" d="M1.658,1.057C1.673,1.064,5.5.789,5.5.789c.182.039.345.052.256.452l-1.232,2.6c-.08.566-.309.484-.309.484L.185,4.645c-.358-.058-.174-.6-.174-.6S1.167,1.838,1.2,1.661C1.292,1.25,1.354,1.062,1.658,1.057Z" transform="matrix(0.819, 0.574, -0.574, 0.819, 404.591, 835.027)" fill="#8787c7"/>
      <path id="Path_54" data-name="Path 54" d="M582.906,783.188s1.927-.021,6.26-4.021,3.167-3.667,4.167-4.833,2.833-5.167,5.167-7-.5-3-2-2.333-4.333,2.5-5.167,3.833-1.333-1.667,2-3.833-.667-3.167-2.833-1.667-2.667,3.667-3.667,2.833-1.083-2.073.6-3.167,1.229-3.833-2.1-2-3,2.5-4,2.333,5.167-3.5,1.917-3-6.25,3.333-8.25,5.833-2.833,2.333-4,3.333-3.167,6.5-3,8.833a13.162,13.162,0,0,1,9.5,0A10.62,10.62,0,0,1,582.906,783.188Z" transform="translate(-134 98)" fill="#ffcda8"/>
      <path id="Path_95" data-name="Path 95" d="M1.658,1.057C1.673,1.064,5.5.789,5.5.789c.182.039.345.052.256.452l-1.232,2.6c-.08.566-.309.484-.309.484L.185,4.645c-.358-.058-.174-.6-.174-.6S1.167,1.838,1.2,1.661C1.292,1.25,1.354,1.062,1.658,1.057Z" transform="matrix(0.819, 0.574, -0.574, 0.819, 401.591, 840.027)" fill="#8787c7"/>
      <path id="Path_55" data-name="Path 55" d="M567.99,778.688c4.135-.219,10.7-2.906,14.885,4.563,2.031-.219,4.813-2.75,6.313-4.094,1-1-1.021,2.075-6.854-.791s-7.167-3.032-8.167-2.865-5.13.984-5.964.984A6.42,6.42,0,0,0,567.99,778.688Z" transform="translate(-134 98)" fill="#d19b77"/>
      <path id="Path_97" data-name="Path 97" d="M1.658,1.057C1.673,1.064,5.5.789,5.5.789c.182.039.345.052.256.452l-1.232,2.6c-.08.566-.309.484-.309.484L.185,4.645c-.358-.058-.174-.6-.174-.6S1.167,1.838,1.2,1.661C1.292,1.25,1.354,1.062,1.658,1.057Z" transform="matrix(0.819, 0.574, -0.574, 0.819, 383.591, 836.027)" fill="#8787c7"/>
      <path id="Path_76-32" data-name="Path 76" d="M1.658,1.057C1.673,1.064,5.5.789,5.5.789c.182.039.345.052.256.452l-1.232,2.6c-.08.566-.309.484-.309.484L.185,4.645c-.358-.058-.174-.6-.174-.6S1.167,1.838,1.2,1.661C1.292,1.25,1.354,1.062,1.658,1.057Z" transform="matrix(0.819, 0.574, -0.574, 0.819, 415.653, 834.527)" fill="#8787c7"/>
      <path id="Path_79" data-name="Path 79" d="M1.658,1.057C1.673,1.064,5.5.789,5.5.789c.182.039.345.052.256.452l-1.232,2.6c-.08.566-.309.484-.309.484L.185,4.645c-.358-.058-.174-.6-.174-.6S1.167,1.838,1.2,1.661C1.292,1.25,1.354,1.062,1.658,1.057Z" transform="matrix(0.819, 0.574, -0.574, 0.819, 410.653, 838.527)" fill="#8787c7"/>
      <path id="Path_94" data-name="Path 94" d="M1.658,1.057C1.673,1.064,5.5.789,5.5.789c.182.039.345.052.256.452l-1.232,2.6c-.08.566-.309.484-.309.484L.185,4.645c-.358-.058-.174-.6-.174-.6S1.167,1.838,1.2,1.661C1.292,1.25,1.354,1.062,1.658,1.057Z" transform="matrix(0.819, 0.574, -0.574, 0.819, 407.653, 843.527)" fill="#8787c7"/>
      <path id="Path_98" data-name="Path 98" d="M1.658,1.057C1.673,1.064,5.5.789,5.5.789c.182.039.345.052.256.452l-1.232,2.6c-.08.566-.309.484-.309.484L.185,4.645c-.358-.058-.174-.6-.174-.6S1.167,1.838,1.2,1.661C1.292,1.25,1.354,1.062,1.658,1.057Z" transform="matrix(0.819, 0.574, -0.574, 0.819, 389.653, 839.527)" fill="#8787c7"/>
      <path id="Path_76-33" data-name="Path 76" d="M1.658,1.057C1.673,1.064,5.5.789,5.5.789c.182.039.345.052.256.452l-1.232,2.6c-.08.566-.309.484-.309.484L.185,4.645c-.358-.058-.174-.6-.174-.6S1.167,1.838,1.2,1.661C1.292,1.25,1.354,1.062,1.658,1.057Z" transform="matrix(0.819, 0.574, -0.574, 0.819, 421.716, 838.027)" fill="#8787c7"/>
      <path id="Path_80" data-name="Path 80" d="M1.658,1.057C1.673,1.064,5.5.789,5.5.789c.182.039.345.052.256.452l-1.232,2.6c-.08.566-.309.484-.309.484L.185,4.645c-.358-.058-.174-.6-.174-.6S1.167,1.838,1.2,1.661C1.292,1.25,1.354,1.062,1.658,1.057Z" transform="matrix(0.819, 0.574, -0.574, 0.819, 416.716, 842.027)" fill="#8787c7"/>
      <path id="Path_93" data-name="Path 93" d="M1.658,1.057C1.673,1.064,5.5.789,5.5.789c.182.039.345.052.256.452l-1.232,2.6c-.08.566-.309.484-.309.484L.185,4.645c-.358-.058-.174-.6-.174-.6S1.167,1.838,1.2,1.661C1.292,1.25,1.354,1.062,1.658,1.057Z" transform="matrix(0.819, 0.574, -0.574, 0.819, 413.716, 847.027)" fill="#8787c7"/>
      <path id="Path_141" data-name="Path 141" d="M1.658,1.057C1.673,1.064,5.5.789,5.5.789c.182.039.345.052.256.452l-1.232,2.6c-.08.566-.309.484-.309.484L.185,4.645c-.358-.058-.174-.6-.174-.6S1.167,1.838,1.2,1.661C1.292,1.25,1.354,1.062,1.658,1.057Z" transform="matrix(0.819, 0.574, -0.574, 0.819, 419.716, 851.027)" fill="#8787c7"/>
      <path id="Path_99" data-name="Path 99" d="M1.658,1.057C1.673,1.064,5.5.789,5.5.789c.182.039.345.052.256.452l-1.232,2.6c-.08.566-.309.484-.309.484L.185,4.645c-.358-.058-.174-.6-.174-.6S1.167,1.838,1.2,1.661C1.292,1.25,1.354,1.062,1.658,1.057Z" transform="matrix(0.819, 0.574, -0.574, 0.819, 395.716, 843.027)" fill="#8787c7"/>
      <path id="Path_76-34" data-name="Path 76" d="M1.658,1.057C1.673,1.064,5.5.789,5.5.789c.182.039.345.052.256.452l-1.232,2.6c-.08.566-.309.484-.309.484L.185,4.645c-.358-.058-.174-.6-.174-.6S1.167,1.838,1.2,1.661C1.292,1.25,1.354,1.062,1.658,1.057Z" transform="matrix(0.819, 0.574, -0.574, 0.819, 427.778, 841.527)" fill="#8787c7"/>
      <path id="Path_81" data-name="Path 81" d="M1.658,1.057C1.673,1.064,5.5.789,5.5.789c.182.039.345.052.256.452l-1.232,2.6c-.08.566-.309.484-.309.484L.185,4.645c-.358-.058-.174-.6-.174-.6S1.167,1.838,1.2,1.661C1.292,1.25,1.354,1.062,1.658,1.057Z" transform="matrix(0.819, 0.574, -0.574, 0.819, 422.778, 845.527)" fill="#8787c7"/>
      <path id="Path_92" data-name="Path 92" d="M4.872.142c.084.007,26.487-1.837,26.487-1.837.991-.083.85.206.764.452L31.078,2.317a.586.586,0,0,1-.589.412L1.282,4.645c-.985.086-1.037-.6-1.037-.6S1.943.923,2.168.746C2.692.335,3.061.147,4.872.142Z" transform="matrix(0.819, 0.574, -0.574, 0.819, 407.778, 850.527)" fill="#8787c7"/>
      <path id="Path_100" data-name="Path 100" d="M1.658,1.057C1.673,1.064,5.5.789,5.5.789c.182.039.345.052.256.452l-1.232,2.6c-.08.566-.309.484-.309.484L.185,4.645c-.358-.058-.174-.6-.174-.6S1.167,1.838,1.2,1.661C1.292,1.25,1.354,1.062,1.658,1.057Z" transform="matrix(0.819, 0.574, -0.574, 0.819, 401.778, 846.527)" fill="#8787c7"/>
      <path id="Path_76-35" data-name="Path 76" d="M1.658,1.057C1.673,1.064,5.5.789,5.5.789c.182.039.345.052.256.452l-1.232,2.6c-.08.566-.309.484-.309.484L.185,4.645c-.358-.058-.174-.6-.174-.6S1.167,1.838,1.2,1.661C1.292,1.25,1.354,1.062,1.658,1.057Z" transform="matrix(0.819, 0.574, -0.574, 0.819, 432.84, 845.027)" fill="#8787c7"/>
      <path id="Path_82" data-name="Path 82" d="M1.658,1.057C1.673,1.064,5.5.789,5.5.789c.182.039.345.052.256.452l-1.232,2.6c-.08.566-.309.484-.309.484L.185,4.645c-.358-.058-.174-.6-.174-.6S1.167,1.838,1.2,1.661C1.292,1.25,1.354,1.062,1.658,1.057Z" transform="matrix(0.819, 0.574, -0.574, 0.819, 427.84, 849.027)" fill="#8787c7"/>
      <path id="Path_91" data-name="Path 91" d="M1.658,1.057C1.673,1.064,5.5.789,5.5.789c.182.039.345.052.256.452l-1.232,2.6c-.08.566-.309.484-.309.484L.185,4.645c-.358-.058-.174-.6-.174-.6S1.167,1.838,1.2,1.661C1.292,1.25,1.354,1.062,1.658,1.057Z" transform="matrix(0.819, 0.574, -0.574, 0.819, 424.84, 854.027)" fill="#8787c7"/>
      <path id="Path_76-36" data-name="Path 76" d="M1.658,1.057C1.673,1.064,5.5.789,5.5.789c.182.039.345.052.256.452l-1.232,2.6c-.08.566-.309.484-.309.484L.185,4.645c-.358-.058-.174-.6-.174-.6S1.167,1.838,1.2,1.661C1.292,1.25,1.354,1.062,1.658,1.057Z" transform="matrix(0.819, 0.574, -0.574, 0.819, 438.902, 848.527)" fill="#8787c7"/>
      <path id="Path_83" data-name="Path 83" d="M1.658,1.057C1.673,1.064,5.5.789,5.5.789c.182.039.345.052.256.452l-1.232,2.6c-.08.566-.309.484-.309.484L.185,4.645c-.358-.058-.174-.6-.174-.6S1.167,1.838,1.2,1.661C1.292,1.25,1.354,1.062,1.658,1.057Z" transform="matrix(0.819, 0.574, -0.574, 0.819, 433.902, 852.527)" fill="#8787c7"/>
      <path id="Path_90" data-name="Path 90" d="M1.658,1.057C1.673,1.064,5.5.789,5.5.789c.182.039.345.052.256.452l-1.232,2.6c-.08.566-.309.484-.309.484L.185,4.645c-.358-.058-.174-.6-.174-.6S1.167,1.838,1.2,1.661C1.292,1.25,1.354,1.062,1.658,1.057Z" transform="matrix(0.819, 0.574, -0.574, 0.819, 430.902, 857.527)" fill="#8787c7"/>
      <path id="Path_76-37" data-name="Path 76" d="M1.658,1.057C1.673,1.064,5.5.789,5.5.789c.182.039.345.052.256.452l-1.232,2.6c-.08.566-.309.484-.309.484L.185,4.645c-.358-.058-.174-.6-.174-.6S1.167,1.838,1.2,1.661C1.292,1.25,1.354,1.062,1.658,1.057Z" transform="matrix(0.819, 0.574, -0.574, 0.819, 443.964, 851.027)" fill="#8787c7"/>
      <path id="Path_84" data-name="Path 84" d="M1.658,1.057C1.673,1.064,5.5.789,5.5.789c.182.039.345.052.256.452l-1.232,2.6c-.08.566-.309.484-.309.484L.185,4.645c-.358-.058-.174-.6-.174-.6S1.167,1.838,1.2,1.661C1.292,1.25,1.354,1.062,1.658,1.057Z" transform="matrix(0.819, 0.574, -0.574, 0.819, 438.964, 855.027)" fill="#8787c7"/>
      <path id="Path_89" data-name="Path 89" d="M1.658,1.057C1.673,1.064,5.5.789,5.5.789c.182.039.345.052.256.452l-1.232,2.6c-.08.566-.309.484-.309.484L.185,4.645c-.358-.058-.174-.6-.174-.6S1.167,1.838,1.2,1.661C1.292,1.25,1.354,1.062,1.658,1.057Z" transform="matrix(0.819, 0.574, -0.574, 0.819, 435.964, 860.027)" fill="#8787c7"/>
      <path id="Path_76-38" data-name="Path 76" d="M1.658,1.057C1.673,1.064,5.5.789,5.5.789c.182.039.345.052.256.452l-1.232,2.6c-.08.566-.309.484-.309.484L.185,4.645c-.358-.058-.174-.6-.174-.6S1.167,1.838,1.2,1.661C1.292,1.25,1.354,1.062,1.658,1.057Z" transform="matrix(0.819, 0.574, -0.574, 0.819, 467.151, 864.527)" fill="#8787c7"/>
      <path id="Path_85" data-name="Path 85" d="M1.658,1.057C1.673,1.064,5.5.789,5.5.789c.182.039.345.052.256.452l-1.232,2.6c-.08.566-.309.484-.309.484L.185,4.645c-.358-.058-.174-.6-.174-.6S1.167,1.838,1.2,1.661C1.376,1.294,1.354,1.062,1.658,1.057Z" transform="matrix(0.819, 0.574, -0.574, 0.819, 463.151, 868.527)" fill="#8787c7"/>
      <path id="Path_101" data-name="Path 101" d="M1.052,1.139,4.715.789a.337.337,0,0,1,.256.2L4.523,2.135a.284.284,0,0,1-.309.213L.255,2.714C-.1,2.688.08,2.448.08,2.448S.56,1.483.6,1.405A.745.745,0,0,1,1.052,1.139Z" transform="matrix(0.819, 0.574, -0.574, 0.819, 457.151, 878.527)" fill="#8787c7"/>
      <path id="Path_138" data-name="Path 138" d="M6.975,2.215,126.708-.118l-10.25,17.242-118.076.561Z" transform="translate(425.662 790.342) rotate(31)" fill="#005baa"/>
      <path id="Path_102" data-name="Path 102" d="M.791,1.283,4.715.789a.337.337,0,0,1,.256.2L4.523,2.135a.284.284,0,0,1-.309.213L.129,2.726C-.229,2.7-.045,2.46-.045,2.46l.439-.9A.733.733,0,0,1,.791,1.283Z" transform="matrix(0.819, 0.574, -0.574, 0.819, 454.151, 880.527)" fill="#8787c7"/>
      <path id="Path_103" data-name="Path 103" d="M.883,1.333,4.715.789a.337.337,0,0,1,.256.2L4.523,2.135a.284.284,0,0,1-.309.213L.127,2.8c-.358-.026-.174-.266-.174-.266s.439-.86.476-.938A.745.745,0,0,1,.883,1.333Z" transform="matrix(0.819, 0.574, -0.574, 0.819, 460.151, 883.527)" fill="#8787c7"/>
      <path id="Path_76-39" data-name="Path 76" d="M1.658,1.057C1.673,1.064,5.5.789,5.5.789c.182.039.345.052.256.452l-1.232,2.6c-.08.566-.309.484-.309.484L.185,4.645c-.358-.058-.174-.6-.174-.6S1.167,1.838,1.2,1.661C1.292,1.25,1.354,1.062,1.658,1.057Z" transform="matrix(0.819, 0.574, -0.574, 0.819, 473.213, 868.027)" fill="#8787c7"/>
      <path id="Path_86" data-name="Path 86" d="M2.534,1.385c.029.009,8.986-.951,8.986-.951a.629.629,0,0,1,.494.379l-1.83,3.761c-.163.687-.633.587-.633.587L.662,5.576C-.07,5.505.306,4.844.306,4.844S1.612,2.191,1.69,1.976C1.983,1.593,1.912,1.391,2.534,1.385Z" transform="matrix(0.819, 0.574, -0.574, 0.819, 468.687, 871.349)" fill="#8787c7"/>
      <path id="Path_87" data-name="Path 87" d="M3.049,1.521C3.083,1.529,13.624.434,13.624.434a.72.72,0,0,1,.586.379L12.719,4.325a.685.685,0,0,1-.751.587l-10.923.72C.177,5.562.622,4.9.622,4.9S1.955,2.327,2.047,2.112C2.4,1.729,2.311,1.526,3.049,1.521Z" transform="matrix(0.819, 0.574, -0.574, 0.819, 460.687, 873.349)" fill="#8787c7"/>
      <path id="Path_76-40" data-name="Path 76" d="M1.658,1.057C1.673,1.064,5.5.789,5.5.789c.182.039.345.052.256.452l-1.232,2.6c-.08.566-.309.484-.309.484L.185,4.645c-.358-.058-.174-.6-.174-.6S1.167,1.838,1.2,1.661C1.292,1.25,1.354,1.062,1.658,1.057Z" transform="matrix(0.819, 0.574, -0.574, 0.819, 479.275, 871.527)" fill="#8787c7"/>
      <path id="Path_105" data-name="Path 105" d="M621.833,789.172c-.667,1.161-4.833,5.328-1.5,9.995s10.5,5,15.833,2.833c2.333-1.333,7-3.833,8.667-8s-2-8.333-4.833-9C630.167,780.5,621.833,789.172,621.833,789.172Z" transform="translate(-134 98)" fill="none"/>
      <path id="Path_109" data-name="Path 109" d="M645.251,786.418s2.217,10.519-5.939,14.832c-8.219,4.25-21.446,3.124-20.509-7.769a10.28,10.28,0,0,1,.7-2.075C626.5,779.006,645.251,786.418,645.251,786.418Z" transform="translate(-134 98)" fill="#005ca9"/>
      <path id="Path_110" data-name="Path 110" d="M624.838,788.285c-3.238,1.115-4.494,2.684-4.713,4.653s.075,4.662,3.475,6.862,9.8-.6,12.6-3,7.253-3.362,8.472-3.659,1.688-2.656,1.688-2.656Z" transform="translate(-134 98)" fill="#022251"/>
      <path id="Path_106" data-name="Path 106" d="M622.167,794.645a8.557,8.557,0,0,0,6.333,2.171c1.667-.31,3.667,0,6.833-2.171a24.6,24.6,0,0,1,9.2-3.379c2-.155,1.984-1.078,1.984-1.078s-.484-3.469-1.578-4.719c-2.5-2.906-5.1-.129-7.6.491s-1.646.446-1.755-.491,1.792-1.977,5.125-3.062c-1.516-1.437-8.8-2.312-15.536,1.073-2.479,1.615-3.135,2.584-4.135,5.365S622.167,794.645,622.167,794.645Z" transform="translate(-134 98)" fill="#f7fcff"/>
      <path id="Path_107" data-name="Path 107" d="M637.438,786.438a14.188,14.188,0,0,1,3.406-1.562c1.719-.469,2.125-.2,2.2-.766a1.748,1.748,0,0,0-1.8-1.766,4.8,4.8,0,0,0-2.625.594,9.855,9.855,0,0,0-2.687,1.563,1.38,1.38,0,0,0-.271,1.938C636.208,787.016,637.438,786.438,637.438,786.438Z" transform="translate(-134 98)" fill="#022454"/>
      <path id="Path_108" data-name="Path 108" d="M646.375,790.547s-5.208-3.044-9.875-.129a10.032,10.032,0,0,1-9.167.749s-6.229-2.077-6.583-.749a5.609,5.609,0,0,0,.5,3.249s3.156,7.193,11.25,3.583c3.375-2.125,7.505-4.281,10.167-4.75A5.824,5.824,0,0,0,646.375,790.547Z" transform="translate(-134 98)" fill="#dbe8f0"/>
      <path id="Path_112" data-name="Path 112" d="M553.022,610.75l-.593-1.464a8.014,8.014,0,0,1,7.053-4.036c2.244,1,95.973,56.25,97.22,57.25s1.87,1.607,1.87,3.357,1.121,83.143-.125,84.893-6.232,3.5-6.232,3.5L582.665,660.5Z" transform="translate(-134 98)" fill="#fff"/>
      <path id="Path_113" data-name="Path 113" d="M654.5,667.75l4.167-2.75L659,748.75s-.25,2.5-1.25,3.25a44.428,44.428,0,0,1-5.75,2.5V668.75Z" transform="translate(-134 98)" fill="none"/>
      <path id="Path_139" data-name="Path 139" d="M652,669.75l6.857-4.321L659.2,748.2s.362,2.987-1.7,3.8a29.035,29.035,0,0,1-4.562,2.125L649.6,750.4Z" transform="translate(-134 98)" fill="#b3b1e2"/>
      <path id="Path_111" data-name="Path 111" d="M-21.851-2.285,88.613,7.651c2.983,1.306,3.49,2.394,5,5l34.213,73.765s.477,3.626-4.175,3.588L13.607,80.853c-2.356,0-5-5-5-5L-25.3,1.583C-25.151-1.135-24.612-2.285-21.851-2.285Z" transform="translate(441.171 717.972) rotate(25)" fill="#012148"/>
      <path id="Path_115" data-name="Path 115" d="M-.2-11.2,93.2,42.6V117L-.2,63.8Z" transform="translate(422 723)" fill="#262626"/>
      <path id="Path_116" data-name="Path 116" d="M-.083,4.9,14.089,8.555,14.4,9.714.24,6.105Z" transform="matrix(0.966, 0.259, -0.259, 0.966, 427.015, 718.29)" fill="#fff"/>
      <path id="Path_117" data-name="Path 117" d="M-.083,4.9l62.136,1.5,1.362.474L1.335,5.392Z" transform="matrix(0.883, 0.469, -0.469, 0.883, 451.066, 729.363)" fill="#fff"/>
      <path id="Path_128" data-name="Path 128" d="M-.083,4.9,60.273,5.954l1.323.335L1.294,5.247Z" transform="translate(451.408 787.938) rotate(29)" fill="#fff"/>
      <path id="Path_119" data-name="Path 119" d="M-.083,4.9,40.977,6.1l.9.382L.854,5.3Z" transform="translate(451.327 750.09) rotate(29)" fill="#fff"/>
      <path id="Path_123" data-name="Path 123" d="M-.083,4.9,40.977,6.1l.9.382L.854,5.3Z" transform="translate(451.327 760.09) rotate(29)" fill="#fff"/>
      <path id="Path_121" data-name="Path 121" d="M-.083,4.9l61.128.545,1.34.173L1.312,5.078Z" transform="translate(451.327 754.09) rotate(29)" fill="#fff"/>
      <path id="Path_131" data-name="Path 131" d="M-.083,4.9l61.128.545,1.34.173L1.312,5.078Z" transform="translate(451.327 740.09) rotate(29)" fill="#fff"/>
      <path id="Path_124" data-name="Path 124" d="M-.083,4.9l21.666.569.475.18L.411,5.086Z" transform="translate(451.327 764.09) rotate(29)" fill="#fff"/>
      <path id="Path_132" data-name="Path 132" d="M-.083,4.9l21.666.569.475.18L.411,5.086Z" transform="translate(486.327 766.09) rotate(29)" fill="#fff"/>
      <path id="Path_133" data-name="Path 133" d="M-.083,4.9l21.666.569.475.18L.411,5.086Z" transform="matrix(0.883, 0.469, -0.469, 0.883, 458.155, 750.215)" fill="#fff"/>
      <path id="Path_125" data-name="Path 125" d="M-.083,4.9l21.666.569.475.18L.411,5.086Z" transform="translate(451.327 765.09) rotate(29)" fill="#fff"/>
      <path id="Path_120" data-name="Path 120" d="M-.083,4.9l54.19,1.335,1.188.423L1.154,5.339Z" transform="matrix(0.883, 0.469, -0.469, 0.883, 451.066, 743.363)" fill="#fff"/>
      <path id="Path_129" data-name="Path 129" d="M-.083,4.9,23.256,6.5l.511.507L.449,5.427Z" transform="matrix(0.899, 0.438, -0.438, 0.899, 450.658, 778.706)" fill="#fff"/>
      <path id="Path_122" data-name="Path 122" d="M-.083,4.9,56.6,6.255l1.242.43L1.211,5.346Z" transform="translate(451.395 761.969) rotate(29)" fill="#fff"/>
      <path id="Path_118" data-name="Path 118" d="M-.083,4.9l44.077.749.966.238L.923,5.145Z" transform="matrix(0.883, 0.469, -0.469, 0.883, 451.066, 735.363)" fill="#fff"/>
      <path id="Path_126" data-name="Path 126" d="M-.083,4.9l29.136.942.639.3L.582,5.209Z" transform="matrix(0.883, 0.469, -0.469, 0.883, 451.066, 769.363)" fill="#fff"/>
      <path id="Path_130" data-name="Path 130" d="M-.083,4.9,51.75,5.907l1.136.32L1.1,5.231Z" transform="translate(451.371 784.005) rotate(29)" fill="#fff"/>
      <path id="Path_127" data-name="Path 127" d="M-.083,4.9,60.627,6.8l1.33.6L1.3,5.528Z" transform="matrix(0.891, 0.454, -0.454, 0.891, 450.702, 773.815)" fill="#fff"/>
      <path id="Path_116-2" data-name="Path 116" d="M-.7,2.58,13.312,5.657l.776,2.9L0,5.209Z" transform="matrix(0.966, 0.259, -0.259, 0.966, 427.015, 725.29)" fill="#fff"/>
      <path id="Path_116-3" data-name="Path 116" d="M-1.187,1.57,12.977,3.209l.413.89L-.8,2.408Z" transform="translate(427.411 731.857) rotate(20)" fill="#967dc8"/>
      <path id="Path_116-4" data-name="Path 116" d="M-1.187,1.57,12.977,4.406l1.165,3.571L0,5.209Z" transform="matrix(0.966, 0.259, -0.259, 0.966, 427.015, 736.29)" fill="#fff"/>
      <path id="Path_116-5" data-name="Path 116" d="M-1.187,1.57,12.977,4.406l.672,2.507L-.475,4.227Z" transform="matrix(0.966, 0.259, -0.259, 0.966, 427.015, 743.29)" fill="#bbd126"/>
      <path id="Path_116-6" data-name="Path 116" d="M-1.187,1.57l14.164,1.3.413.7L-.734,2.343Z" transform="translate(427.468 748.766) rotate(21)" fill="#fff"/>
      <path id="Path_116-7" data-name="Path 116" d="M-1.187,1.57l14.24,3.121.984,3.671L0,5.209Z" transform="matrix(0.966, 0.259, -0.259, 0.966, 427.015, 751.29)" fill="#fff"/>
      <path id="Path_116-8" data-name="Path 116" d="M-1.187,1.57l14.4,3.7.259.966L-.863,2.778Z" transform="matrix(0.966, 0.259, -0.259, 0.966, 427.015, 757.29)" fill="#e13838"/>
      <path id="Path_134" data-name="Path 134" d="M-1.187,1.57l14.4,3.7.259.966L-.863,2.778Z" transform="matrix(0.966, 0.259, -0.259, 0.966, 427.015, 768.29)" fill="#00ff80"/>
      <path id="Path_116-9" data-name="Path 116" d="M-1.187,1.57,13.26,5.464l.776,2.9L0,5.209Z" transform="matrix(0.966, 0.259, -0.259, 0.966, 427.015, 761.29)" fill="#fff"/>
      <path id="Path_116-10" data-name="Path 116" d="M-1.187,1.57,13.157,5.077l.932,3.477L0,5.209Z" transform="matrix(0.966, 0.259, -0.259, 0.966, 427.015, 772.29)" fill="#fff"/>
      <path id="Path_136" data-name="Path 136" d="M593.625,722.375s-1.516.781-1.7,1.172a15.723,15.723,0,0,0-.172,3.188,1.239,1.239,0,0,0,.109.391,1.533,1.533,0,0,0,.409.3L618.5,742.672a5.834,5.834,0,0,0,1.136.515c.634.188,3.311.833,4.739-.187a9.265,9.265,0,0,0,2.375-2.25l-32.125-18.375Z" transform="translate(-134 98)" fill="#fbfffe"/>
      <path id="Path_135" data-name="Path 135" d="M594.156,722.125l31.26,17.708S623.5,742.75,620.5,741.5s-27.807-15.75-27.807-15.75a2.024,2.024,0,0,1-.786-2.25C592.219,722.5,594.156,722.125,594.156,722.125Z" transform="translate(-134 98)" fill="#afb1e2"/>
      <path id="Path_114" data-name="Path 114" d="M550.813,689.375l103.75,60.313s.563,2.875-.937,4.063c-1.812,1.688-4.5,0-4.5,0l-95.437-54.562a4.678,4.678,0,0,1-2.625-3.812A57.127,57.127,0,0,1,550.813,689.375Z" transform="translate(-134 98)" fill="#f8f9fe"/>
      <path id="Path_137" data-name="Path 137" d="M620,741.391v1.844a11.269,11.269,0,0,0,3.144.219,5.4,5.4,0,0,0,2.907-1.406,18.626,18.626,0,0,0,1.7-1.63l-1.7-.583a10.325,10.325,0,0,1-2.907,1.792A3.9,3.9,0,0,1,620,741.391Z" transform="translate(-134 98)" fill="#e5fef6"/>
    </g>
  </g>
</svg>
